<svg xmlns="http://www.w3.org/2000/svg" width="32" height="37" style="isolation:isolate">
  <path fill="#4379D1" stroke="#345EA2" stroke-width="1.5" d="M16 36h-.01c-.55 0-.912-.152-1.303-.547l-8.83-8.99c-3.14-3.18-4.357-6.16-4.357-10.67v-.155c0-4.388 1.193-7.292 4.262-10.373 5.715-5.687 14.76-5.687 20.476 0 3.08 3.093 4.275 6.014 4.26 10.42.034 4.548-1.188 7.57-4.357 10.78l-8.82 8.972c-.39.403-.75.56-1.31.563z"/>
  <path fill="#FFF" d="M20.305 25.764l-8.61.103 4.43 5.297"/>
  <mask id="a">
    <path fill="#fff" d="M20.305 25.764l-8.61.103 4.43 5.297z"/>
  </mask>
  <path fill="none" d="M20.305 25.764l-8.61.103 4.43 5.297" mask="url(#a)"/>
  <path fill="#FFF" fill-rule="evenodd" stroke="rgba(0,0,0,0)" d="M22.91 7.674c1.633 0 2.93 1.235 2.93 2.788v6.373H13.695V13.65c0-1.077-.964-1.993-2.095-1.993H7.7c-.588 0-.954-.555-.787-1.033.042-.16.074-.276.157-.435l.89-1.29c.084-.08.126-.2.21-.28l.04-.04.248-.25c.544-.44 1.25-.68 1.963-.68h12.49zm0 1.992h-6.284c-.25 0-.495.194-.495.433v2.93c0 .24.45.59.7.59h5.93c.25 0 .52-.15.52-.39l.07-3.18c0-.24-.164-.4-.42-.4zm-9.635 0h-3.35c-.252 0-.42.16-.42.398 0 .24.168.398.42.398h3.35c.25 0 .42-.16.42-.398 0-.24-.17-.398-.42-.398zM11.6 12.454c.67 0 1.256.557 1.256 1.195v5.97c0 .48-.325.91-.772 1.09-.15.06-.317.1-.485.1h-.04c-.21 1.11-1.22 1.99-2.48 1.99s-2.27-.88-2.48-1.99h-.45c-.09 0-.17-.01-.25-.03-.56-.12-1.01-.62-1.01-1.17v-3.58h.01c0-.06 0-.11.01-.16.01-.1.04-.19.06-.28l.016-.03c.025-.08.06-.16.09-.24.176-.44.413-.78.47-.84v-.01l1.087-1.39h.014v-.02c.412-.49.995-.62 1.582-.62h3.35zm-1.257.796H8.248c-.49 0-.668.024-.916.312-.005.005-.008.006-.013.012l-.54.697-.5.65c-.13.16-.43.68-.51 1.12h4.15c.25 0 .42-.16.42-.4v-2.39zm15.498 4.38v1.993c0 .677-.54 1.195-1.25 1.195h-1.72c-.21 1.115-1.21 1.99-2.47 1.99s-2.26-.875-2.47-1.99h-3.01c-.67 0-1.18-.523-1.18-1.12V17.63h12.11zm-5.44 1.196c-.92 0-1.67.717-1.67 1.593s.76 1.59 1.68 1.59c.92 0 1.68-.72 1.68-1.6s-.75-1.6-1.67-1.6zm-11.31 0c-.92 0-1.67.717-1.67 1.593s.76 1.59 1.68 1.59c.92 0 1.68-.72 1.68-1.6s-.75-1.6-1.68-1.6z"/>
</svg>