<?xml version="1.0" encoding="UTF-8"?>
<svg width="12" height="12" version="1.1" viewBox="0 0 12 12" xmlns="http://www.w3.org/2000/svg" xmlns:cc="http://creativecommons.org/ns#" xmlns:dc="http://purl.org/dc/elements/1.1/" xmlns:rdf="http://www.w3.org/1999/02/22-rdf-syntax-ns#">
 <metadata>
  <rdf:RDF>
   <cc:Work rdf:about="">
    <dc:format>image/svg+xml</dc:format>
    <dc:type rdf:resource="http://purl.org/dc/dcmitype/StillImage"/>
    <dc:title/>
   </cc:Work>
  </rdf:RDF>
 </metadata>
 <g transform="translate(-4.006 -1036.4)">
  <g transform="translate(3.5998,2.8998)">
   <path d="m9.9062 1033.5c-1.3807 0-2.5 1.1193-2.5 2.5 0 0.3208 0.04614 0.6244 0.15625 0.9063l-3.75 3.75c-0.28184-0.1102-0.58542-0.1563-0.90625-0.1563-1.3807 0-2.5 1.1193-2.5 2.5s1.1193 2.5 2.5 2.5 2.5-1.1193 2.5-2.5c0-0.3208-0.04614-0.6244-0.15625-0.9062l3.75-3.75c0.28184 0.1101 0.58542 0.1562 0.90625 0.1562 1.3807 0 2.5-1.1193 2.5-2.5s-1.1193-2.5-2.5-2.5z" color="#000000"/>
   <circle cx="9.9" cy="1036" r="1.7" fill="#fff" stroke-width="17.134"/>
   <circle cx="2.912" cy="1043" r="1.7" fill="#fff" stroke-width="17.134"/>
   <path d="m9.1207 1036.7-5.125 5.2268" fill="#ffff64" stroke="#fff" stroke-width=".73936px"/>
  </g>
  <path d="m13.483 1037.5v2.8" fill="none" stroke="#000" stroke-width=".57733"/>
  <path d="m14.883 1038.9h-2.8" fill="none" stroke="#000" stroke-width=".57733"/>
 </g>
</svg>
